<svg xmlns="http://www.w3.org/2000/svg" viewBox="0 0 591.41 180.8"><defs><style>.cls-1{fill:#fff;}</style></defs><title>logo</title><g id="Layer_2" data-name="Layer 2"><g id="Layer_1-2" data-name="Layer 1"><path class="cls-1" d="M580.63,176.11c.59.45,1.94.2,1.67-1l-2.28-.89Z"/><path class="cls-1" d="M584.86,167.75c-1.11-1.47-3.06-3.15-5.15-2.21,2.19,1.45,1.27,1.8,3.89,3.36a1.51,1.51,0,0,1-1.58,2c.59.44-.5,1.94.94,2.61,1.76-1.62,1.83-3.67.38-5.81C583.84,167.2,584.43,167.64,584.86,167.75Z"/><path class="cls-1" d="M588.42,46.17l-.27.78A1.85,1.85,0,0,0,588.42,46.17Z"/><path class="cls-1" d="M509.86,2.6a4.43,4.43,0,0,0,1.88-.22C510.55,2.45,509.58,2.51,509.86,2.6Z"/><path class="cls-1" d="M481.15,1.47l1.69.07A6.31,6.31,0,0,0,481.15,1.47Z"/><path class="cls-1" d="M588.42,46.17l.71-2C588.39,44,588.58,45.19,588.42,46.17Z"/><path class="cls-1" d="M579.35,151a2.65,2.65,0,0,0,.6,1.09l-.24-1Z"/><path class="cls-1" d="M590.27,79.38V80a5.71,5.71,0,0,0,.93.51Z"/><path class="cls-1" d="M590.62,104.86c.08-.58-1.86-.78-2.7-1a2,2,0,0,1,1.33,1.26A4,4,0,0,0,590.62,104.86Z"/><path class="cls-1" d="M587.2,145.27l.27.72C587.4,145.8,587.29,145.49,587.2,145.27Z"/><path class="cls-1" d="M590.69,61.14a1.9,1.9,0,0,0,.69-.24A1.23,1.23,0,0,0,590.69,61.14Z"/><path class="cls-1" d="M519.27,172c0,.07,0,.11,0,.16C519.6,172.1,519.7,172,519.27,172Z"/><path class="cls-1" d="M585.22,176.34l-.92,0a1.16,1.16,0,0,0-.19.49Z"/><path class="cls-1" d="M428.6.36l.24,0C430.22.28,429.43.3,428.6.36Z"/><path class="cls-1" d="M3.14,33.69c1.73-2.45,2.22,4,4.15.3C6.53,34.33,4.26,30.64,3.14,33.69Z"/><path class="cls-1" d="M579.6,150.32a9,9,0,0,1,0-1A2.47,2.47,0,0,0,579.6,150.32Z"/><path class="cls-1" d="M7.29,34h0l.19-.38C7.4,33.76,7.36,33.85,7.29,34Z"/><path class="cls-1" d="M307.53.88a4.49,4.49,0,0,0,1.23.38C308.72,1.17,308.44,1.07,307.53.88Z"/><path class="cls-1" d="M397.73,2.12,395.49,2C396.38,2.08,397.1,2.11,397.73,2.12Z"/><path class="cls-1" d="M260.7,2.11A18,18,0,0,0,257.41,2l.51.11A9.12,9.12,0,0,1,260.7,2.11Z"/><path class="cls-1" d="M212,2.11c.26.07.6.12.9.18l1.54,0Z"/><path class="cls-1" d="M371.13,172.45a9.74,9.74,0,0,1,2.25.78C372.63,172.62,379.79,172.4,371.13,172.45Z"/><path class="cls-1" d="M580.44,151c-.49-.13-.73-.31-.84-.65,0,.25.07.49.11.73A.85.85,0,0,0,580.44,151Z"/><path class="cls-1" d="M258.71,9,251,8.83C253.13,8.92,256,9,258.71,9Z"/><path class="cls-1" d="M22.06,172.58l.26-.06.88-.05a8.45,8.45,0,0,0-.9,0A.82.82,0,0,0,22.06,172.58Z"/><path class="cls-1" d="M228,9a33.11,33.11,0,0,0-4.37-.6,4.24,4.24,0,0,0-.89.23Z"/><path class="cls-1" d="M373.39,173.24a0,0,0,0,1,0,0A0,0,0,0,0,373.39,173.24Z"/><path class="cls-1" d="M424.41,171.18c-7.38,0-3.47,1.12-5,1.77-8.81.33-4.08-.84-7.08-1.42-5.5.3-9.72,1.35-13.82,1.3-.3-.18-1.1-.25-.17-.49-5.81.91-17.26,0-24,1.19a2.82,2.82,0,0,1-.89-.29c1.1.57,1.27,1.16,1.05,1.57-3.31,0-6.14.72-7.39,0a7.37,7.37,0,0,0,3.15-.51l-3.47.33c-3.12-1.08,4.73-.37,4.73-1.17-6.76.35-14.63,1.24-19.81.93-1.09-1,12.11-.35,5.2-1.28l8,.4c-6.12-1.66,4.87.12-.76-1.66-10.54-.3-11.79.54-22.31.23-2.37.59.78.87-1.59,1.45-14.95,1.05-11.77-2.64-22.76-1.24-2.85.7-3.95,2-11.78,1.32l2.67-1.18c-10.21-.12-5.83,1.7-16.52.9,1.9-.46,8-.39,6.48-.53-6.93-.94-4.9.67-10.23.67l-1.1-1.05c-10.87.17-22.85.93-34.89,1.12.67-.32,2.73-.64-.09-1-15.18.53-32.41-.12-47.06-.75l-5.6.91c-1.3,0-2.41-.41-1-.59-5.71-.34-.3.58-3,.94-3.25.06-4.29-.53-2.23-.8-10.08.77-28.7,1.66-39.31.69l2.07-.27c-8.27-.37-9.33,1.86-17,1l1.47-.16c-17.94-.39-37.76.44-51.45-.93-2.6,1.31-17.75-.58-18.91,1.24-10.24-.9-7.3-1.23-21.73-1.84-3.85-.08-5.74,1.14-10.5,1.33l-.12-.95-6.47,1-3.44-1.14-4.47.24c1.78.06,3.79.43,3.52.71-1.34.08-2.78.1-4.25.09a12.38,12.38,0,0,1-1.84-.15c-1-.16-1.44-.43-1.27-.68a3.84,3.84,0,0,1,.93-.55,2.47,2.47,0,0,1-.9-.63l-.11-.12s-.07-.26-.11-.38l-.23-.92L18.49,168c.86.16,1.15,1.4,1.7,2.38-2.17-4,2.24-.72.25-4.33-.48.48-1.27-.27-1.7-.35,1.29-1.8,1.3-5.91.76-8.94l1.46.58c.38-5.48-.7-11.56-.67-17.72a1.75,1.75,0,0,1-3.47-.1l2.25-.73c-1.39-1.16-.85,1.89-2.55-.5.26-2.3,2.55-1.55,3.28-.23L19,135.26c.68-.17,1,.49,1.88.66-1.39-1.15,2.26-4.83-.16-6.48l.67-.16c0-6.15-.76-8.94-.87-14-1.94-.1-1.51-2.06-3.08-3.55.62-3.68,2.14-7.77,2-12.21-1-3.12-1.64-.91-2.8-2.31,1.77-.23,1.61-4.67,2.87-2.37a64.79,64.79,0,0,0-1.78-13.54c-.73.73-1,1.55-1.64,1.13-.3-1.22.74-2.78,1.59-2.61l.18.33C15.21,72.62,23,62.73,19.33,56.71l.18.34L17.59,50.8c.3-2.87,1.33,1.72,2.42-.4-3-6.74.43-10.65-1.54-16.19,5.22-4.3-.36-15.24,3-21l-1.23.34c-1.21-1.5.7-1.81,1-2.92-1,.16-1.1,1.63-1.77.7l-.16-1.66-.12-.5a6.78,6.78,0,0,1-.1-1c.87,0,1.79,0,2.66,0l.69,0,2.25,0,4.53.07q9.07.17,18.21.41c12.17.32,24.36.69,36.36.89,10.63.15,6-2.84,19.42-1.53l-3.8,1c21.44-1.22,43.84.05,64.83-1a10.35,10.35,0,0,1-3.34.53c4.43.75,16.39,0,16.47-.57,3.27.07.76.55,2.77.86,4.44.44,11.16-1,13.52-.21.4.12-1.25.24-2.06.3,2.9-.36,13.5.09,10.72-.76,7.88.4,15.07-.39,21.35.12,4.1-1,13.49.46,14.79-.89-.56,1.4,13.81,1.13,18.79.47-1.67.42,4.33.44,2.38,1,5.68,0,10.89-.28,9.9-1,10.47,1.68,21-1.34,26.94.8C313.3,8,328.93,7.5,344.11,7.17c-.54,1.4-16.78.14-16.13,1.61C342.39,8.2,350.7,7,365,7.34c3.7.19-2.1.61-3.35.85,14.4-.58,27.84.12,40.64-.64a11.29,11.29,0,0,1-2.72.38c2.53,0,5.87.21,5.59-.43l-2.46.17c-4-.92,10-1.92,10.47-2.4C408.87,7.08,425.8,5.72,419,8c1.66-.12,3.74-.42,3.36-.85,2.47.13,3.25.38.75.86,9-.35,5.83-1,14-1,0,.31-1.68.43-2.53.79a74.34,74.34,0,0,1,15.24-.94c-.42.19.38.43-1.68.42,11.89-.09,20.26-1.59,33.3-1-3.84,1.33,4.44.44,5.13,1.59l7-.34L490.79,7c6.14,0,11.57-.82,16.86-.45L503.08,7l11.51-.22-6.51-.44c6.21-.59-.67-1.46,7.51-1.14-1.66.12,6.14,0,9.34.7h0a53.14,53.14,0,0,1,10.71-.47c1.18.37-1,1.28-.18,1.53,3-1,14.39-.27,18.19-1.3-1.27.24-1.34.85-.92,1l2.52-.78c2.84.25,3.26.37,2.8.85,8.56.15-2.72-1.46,7.44-.83-.8.06-.42.18-2.08.3,3.73.12,7.63.08,11,0,2.47-.08,5.16-.19,7.81-.22a7.32,7.32,0,0,1-.22,2.4c-2.59,1.15-.63-2.12-2.82-.58a7.14,7.14,0,0,0,.27,1l.19.54.1.3.12.58c.32,1.55.65,3.12,1,4.67a30.63,30.63,0,0,1,.84,9.13l.28-1.1c3.66.82-1.8,4.37-.08,7.33-.27-.72-2-.95-1.62-.75-.59,4,.9,8.2,2,14.28l-.94-.75c-.84,2.36-.49,6.23-.91,8.78.94.76.78,2.22,2.15,1.33-5.35,7.88,2.87,15-1.59,22,0-.84-.82-2-.83-1.33l.87,6c1.59-.47,1-.78,2.21-2a5.47,5.47,0,0,1,1.67,3.91c-1-2.67-2.56,0-3.45,1.18.49-.19,1,.2,1.53.11-2.84,3.11,3.21.52,1.3,4.76l-.84-.22c.43,1.59,1.53,3,1.29,4.77-1.84.71-.86-1.7-2.37-1.81.1,2.41,3.49,4.75,1.65,6.93-.51-1-.52-2.49-1-3.51-2.17,2.37-1.62,2.65-2,4.41l0-.18-1,4.08.59-1c4.8,3,.87,6.13,4,10.19-3-3.94-1.72-.65-3.81-1-.58,1-1.23,2.61-1.82,2.16,1.69,1.92-1.33,3.2,1.14,5.91-.68.12-.07,2-1.76,1.62.53,2.49,1.17-.59,2-.38,2.3,3.84-2.79,9,.36,14.56,1.3,4.76,3.57,5.65,4.7,10.07-1.08,1.49-2.45-1.22-2.45-1.22a8.31,8.31,0,0,0,0,6.49c-.59-.46-1.08,0-1.84.7.18,1.82,2.45,1.22,1.46,3.62a9.11,9.11,0,0,1-2.7-1.82c.62,2.15,1.87,4.27,2.48,6.49-1.17.59-1.78-1.34-2.54-2.12.52,2.5,1.06,6.47,2.91,7.24l.67-1.6c.09.91-1.6.47-1.94-.21-1.45-2.14.65-3.08,1.32-3.2l.43,1.58c4-1.63-.63-6.36-.4-9.54l2.87,1.33-2.38-3.27c.74-.7,2.35-1.17,2.78.4,1.41-2.28-1-2,.56-4,.24-.22.38-.12.49.08l-.85-2.23c.6.44,2-.37,1.61,1,1.66-4-2.15-6.46,0-8l.18.34c-1-5.56-2.11-.54-4.58-4.71l5.2-2.8-2.11-.55c.08-.57.24-1.71,1.08-1.5-1.44-2.13-.92.37-2.28-.87,1.92-2.76-.9-7.61,2.46-8.23-1.6-1-1.23,2.64-2.35-.31,3.61-.84-.62-3.41,1-5.93,1.86.78.88,3.17,2.54.64-3.15-1.52.69-4.91.09-7-2.51-.1-1-4.62-1.88-8.19.84.22,1.37-6.72,2.28-10l.42.09c-2.53-.64-2.06-4.06-2.58-6.56a2.8,2.8,0,0,1,2.79,1.9V80a3.83,3.83,0,0,1-1.53-2.81l1.89.59c-.1-3.12-2.23-6.28-1-10.29-1.77-.23-4.92,3.19-6.1-1,.95-.16,2.59-.32,3,.79-.13-.36-.79-1.29-.39-2l1.61,1.7c.71-1.83-1.34-1-1.19-2.42,1.36,0,1-1.08,2-.87.13.37-.56,1.27,0,1.83.25-1.64,1.06-3.64,2.09-4.29-.78.14-1.84,0-2-1.21-.1-3.12,1.63-1.07,2.33-2.89-.94-.75,0-2.74-2-2.8,0-.91,1-1.08,1.52-1.43-.9-1.61-.26-7.54-2.43-5.72l-.14.41c0-.07-.06-.17-.09-.26h0c-2-5.29,1.15-11,.28-16.24h.68c-.78-3.14-.46-7-1.92-9.22,0-.92,1.24-2.18,2.05-1.79-.51-2.39-1.27-2.66-.15-6.12,1.19,2.41,1.05-.83.87,2.47.29-1.56.71-2.52.83-3.5a4.32,4.32,0,0,0-.12-1.57,5.4,5.4,0,0,0-.33-.95c-.14-.36-.33-.66-.56-1.3.87.78,1.42,0,1.69-1.49a12.64,12.64,0,0,0,0-4.44l-1.25,3.58a26.43,26.43,0,0,1-.09-4.15l-5.1-.07c1.36-.34,2.84-.68,4.45-1-2.62-.16-5.45-.24-8.28-.28h-4.23c-1.4,0-2.95,0-3.52.06-3.24.11-6.34.35-9.34.56-6,.43-11.55.75-17-.3-3.76.72,7.73.51,4.36,1.35-6.54-.14-13.36-1.62-15.4-1.62-9-.57-8.37,1.5-17.74,1.11,1.2.37,2.33,1.35-4.68,1.69-6.54-.13-8-1.53-3.91-1.83,1.57,0,2.33.09,2.26.21,2.12-.13,4.89-.29,2.3-.69l-.85.37c-3.25-.37-12.25-.33-10.14-.94-4.95.35-2.11.61,1.55.8-8.4-.54-13.12,0-21.76-.38,1.37.21,2.64.64,1.27.63-12.67-.45-5.58.7-14.17.86-4.88-.56,1.75-1.34-6.9-.87-5.27-.38-1.11-1,1-1.27-7.88.71-14.72-.46-19.22-.59L449,0c-2.48.18-4.52.17-6.59.17l2.37.73c-2.43-.13-4.49-.13-4.45-.43-2.51.48,1.92,1.22-3.06,1.87-3.25-.37-9.89.4-11-.57,10.21.33-1.13-1,7.52-1.13a52.66,52.66,0,0,1-6.15,0c-.37-.11.35-.2,1-.26-9.77-.87-4.49,1.1-14.62,1.08,1.29-.55-2.35-1-4-.92,4.08,0,1.95.91-1.79,1.33-6.5-.43-7.06.32-10.46.27l3.88.2c-1.32.55-4.57.48-9.09.65-.39-.43,4.11-.29,2.49-.48-5,1-11.36-1-18.37-.35-3.25-.37-.31-1-3.16-1.28-7.86.71-8.51-.76-16.77-.17,2.38.74,2.79.56-3,1.28l13.58-.52-8.72,1.07c4.1,0,8.65-.46,11.1-.34-4.15.6-3.72.42-1.76,1-5.61-1.1-11.11.65-17.59-.1l.19-1.83c-9.74-.81-17.31.94-30,.48l4.07.32c-1.7.72-7.81.1-11.91.39.38-.61-2.18-.83-3.93-1.21.21.46-9.26,0-10.41,1.18l-5.65-.8c-10.21-.33-11.65,1.73-21.47,1.53,2.95-.67-1.51-1.1,5.07-1.57-3.28,0-6.23-.12-6.28.3-1.91-.38-9.09.82-12.1.25-1.39.26-1.84.9-5.52.85-.4-.12,0-.3,0-.3,0,.3-5.77.41-2.55,1.09-10.1-1.91-28.23.13-37-1.5-7.16.2-15.78.4-22.27.44.41-.18,0-.3,1.25-.24-9-.56-5.51,1.75-15.71,1.12-5.21-1,5.42-.53,2.17-.91C176.88.7,166,3,159.12,1.81l1.66-.12c-5.24-.68-12.79.76-21.36.62,0,0,.41-.18.05-.31-5.86,1-17,1.36-25.2,1.65,2.57-.79,3.75-.42,2.18-1.21-3.69.11,1.08,1.28-6.29,1.5-2.4-.43-7.72-.81-8.43-1.66l7,0c-3.56-1.11-9,0-12.67-.16l.47-.48C85.82,1.76,85.68,3,74.21,2.89l1.19.36c-6.26,1.2-5.25-.68-11.5.22L62,2.25c-4.13.29-14.47,1.18-21.88,1.41C44.32,2.75,53,2.29,58.36,1.75c-4.1,0-13.92.09-16,.69a32.15,32.15,0,0,1,5.36-.22,108.37,108.37,0,0,1-19.8,1.4c.47-.77-1.64-1.1-4.9-1.26l-.63,0-.94,0-2,0L15,2.21l-9.4-.09C5.44,5,5,7.57,3.56,9.09l.09.51.08.3.15.61.21,1.21a19.57,19.57,0,0,1,.17,2.43,37.72,37.72,0,0,1-.34,4.93A62.3,62.3,0,0,0,3,29.66c4.11-2.67.12,2.2,4.34,1.74.27,1.75.2,2.42-.08,2.58L4.79,39.3c-1.23,1.26-.93-1.67-1.88-1.51C2.59,41.63,1.12,39.4,0,42c1.51-.53,2.16,1.33,1.59,3.52l1.94-3.08C5.78,47.76,0,47,2.21,52.44L.89,50.73c.78,2.78,0,10.25,3.36,13-.49.49-1.64,1.14-1.95-.08C1.79,70.26,5.91,78.4,3.82,83.56l-1-.51c.3,1.24,1.94,2.16.9,3.71-.43-.08-1-.5-1.09.07.36.66,1.81,3.29,1.21,4.93l-1.16-1.4c-1.35,6.48,2.82,9.94,3.53,15.37-3,0-4,5.08-4.52,7.62l-.43-.09c-.37,7.54,2.52,12.81,3.71,19.79-3.29,4.34-1.38,14.69-3.23,21.65.56-1.06,2.37.18,2.68,1.41-.62,1.64,2.1,4.52-.68,4.26l0-.58C1,161,1.75,164.38,1.68,167l3.64.43a9,9,0,0,0-1.15,2,8.85,8.85,0,0,0-.38,1.05l-.15.54-.11.86a51.1,51.1,0,0,0-.19,7.74l15.12-.2,9.75-.18c5.13-.06,9.43.08,12.08.75,3.7-.41,8.28-.4,11.94-.81l-.2.88c10.25.22,15.36.33,28,.12l-2.58.63c7.14,0,9-2.53,15.6-2.58l2,1.31c12.46,0,25.07,1.12,37.38-.06-.2.19-.57.57-2.59.62,5.87,0,22.69.89,20.56-.91.14,1.17,12.85.12,19.58-.4l-1,.86c5.68-1.1,5.86-1.4,13.79-1.7,1.88.11,1.65.69-.85.47,6.26.45,4.88-.82,12.47-.36l-2.83.55c6.45.07,5.93-.23,9.48-.87,4-.35,12.22.22,13.18,1,.86-.47,4.39-1.1,8.19-.88.51.29-.87.48-1.57.57,10.78.58,16-1,23.43-.16.16.29.64.43,1.25.51-8.56,0-15.45-.06-14.8-.13,0,.8,6.91.94,1.41,2,5.55-.59,15-1.9,21.78-1.52a4.06,4.06,0,0,1,.89.27l-.7.09a26.61,26.61,0,0,0,4.26-.13c2.15.13,3.52.23,5.58.24.8.66,7.93.36,11.38.39-.29-.87,4.23-.73,0-1.45.55.06-.65.11-2.95.14-.51,0-1.12,0-1.47.09l.24-.07-8.57,0a30.62,30.62,0,0,1,9.38-.33c1.77-.56,3.72-1.13,4.81-1.4,4.72,1.21,13.81,1.87,15.08,2.61,10.53-.48,24.8-.32,31.41-1.95,3-.21,3.45.47,4.56.73-1.72.16-3.78.13-4.71.37,6-.42,17.72-.16,19.15-1.3,7.55.51-4.24,1,6.13.86l-1.4.35c20.39,1.82,33.14-2.91,55.74-.57a9.58,9.58,0,0,1-2.66-.4c25.76,1,53.1-1,78.53.66,7.22.33,8-.39,12.42-.95l1.56.94,7.55-1.08c10.69-.79,18.52,2.29,32.05.8l-1.74-.63c4.86.12,15.4-.37,14.59.35a6.75,6.75,0,0,1,3.49-.32l.15.48,11.95-.83c9.26.35-1.45,1.93,12.06,2,5-.19,14.31-1.42,12.42-1.75-2,0-5.18-.3-5.33-.79l4.59-.26c.84-1.44,4.37-2.91-6.91-3.91l-7.86.88-2.53-.7,6.62-.05c-3.76-.65-6.14-.07-8.8.33a8.51,8.51,0,0,0-3.29-.77l-7.72,1.37c-.93-.56,3.46-1.11-1.71-1.43-3.62.64,3.46,1.27-2.52,1.69-3.76-.66-2.66-1.19-7.08-.63-.62-.37.32-.61,2.07-.77-3.93.44-10.4.19-12.42,1-3.92-.81-13.27.21-12.88-1.15a69.7,69.7,0,0,1-10.52,1.13c6.59-1.63-13.51-.1-11.77-1.85-4.87,1.47-17.62.65-26.26,1.47a7,7,0,0,1,2.2-.28c-4.86-.12-6.28-.57-9.4-.84-.63,1.21-8.2,1.49-12.28,2.23-6-1.17,3.62-1.42,1.75-2.54.3,1-10.36,1-8.33,1.8-4.56-.73-3.93-.36-6.28-1.36-.8,1.52-4.25.26-8,1.19-6.59-.75-1.69-1.42-8.94-1C418,171.72,424.41,171.18,424.41,171.18ZM252.05,173.8v0l3.56-.05Zm-14.49,0c1.77,0,4,0,6.29,0,.51.31,0,.61-1.5.6C243.14,174.24,239.73,174.06,237.56,173.81Zm30.64,6c-2.29.12-3.06-.05-3.37-.22,1.08,0,2.35-.05,4-.11l.27-.1A2.41,2.41,0,0,1,268.2,179.83Z"/><path class="cls-1" d="M272.32,178.69c.33,0,.52-.05.95-.06-.47-.08-.91-.14-1.37-.2l-.81.28Z"/><path class="cls-1" d="M588.1,47.09l0-.14a.86.86,0,0,1-.28.29C588,47.15,588,47.15,588.1,47.09Z"/><polygon class="cls-1" points="37.56 172.15 37.58 172.37 38.84 172.18 37.56 172.15"/><path class="cls-1" d="M581.44,82.82a1,1,0,0,0-.49.47C581.08,83.27,581.25,83.07,581.44,82.82Z"/><path class="cls-1" d="M581,98.26l-.69,2.18A11.44,11.44,0,0,0,581,98.26Z"/><path class="cls-1" d="M580.05,110.13a3.1,3.1,0,0,0,.83.23v0Z"/><path class="cls-1" d="M399.55,7.93l-1,0C396.13,8.14,397.76,8.07,399.55,7.93Z"/><path class="cls-1" d="M524.91,5.9c-1.33.16-2.64.31-4,.41C523.11,6.38,524.85,6.4,524.91,5.9Z"/><path class="cls-1" d="M259.56,9l0,0h-.87Z"/><path class="cls-1" d="M515.05,6.3a39.07,39.07,0,0,0,5.83,0A56.68,56.68,0,0,0,515.05,6.3Z"/><path class="cls-1" d="M579.17,161.56l-.08.57a.68.68,0,0,1,.31.07Z"/><path class="cls-1" d="M579.4,162.2l.23.64C579.63,162.55,579.61,162.29,579.4,162.2Z"/><path class="cls-1" d="M580.12,164.17l-.49-1.33C579.62,163.3,579.56,163.87,580.12,164.17Z"/><path class="cls-1" d="M580.06,145.85l-.7-.18A1.41,1.41,0,0,0,580.06,145.85Z"/><path class="cls-1" d="M579.86,141.08c-.16,1.14-1.5,2.86-1.06,4.44l.56.15C578.31,144.93,581.05,142.16,579.86,141.08Z"/><path class="cls-1" d="M588.55,121.15l-.56,4c.75-.7,1.76-1.62,1.94.2C592.16,120.31,588.25,126.39,588.55,121.15Z"/><path class="cls-1" d="M589.64,108.75c.35,2.14,1.09,0,1.51.08C590.47,107.47,590.3,107.14,589.64,108.75Z"/><path class="cls-1" d="M589.65,19.1l1.76.22C591.16,17.66,590.73,19.3,589.65,19.1Z"/><path class="cls-1" d="M577.12,6.7a5.65,5.65,0,0,1,1.21.49c.71-.24,1.5-.49,2.37-.73Z"/><polygon class="cls-1" points="556.74 1.06 558.36 0.95 552.19 1.24 556.74 1.06"/><path class="cls-1" d="M220.62,1.35l1.12,1C224.24,2.15,224.76,1.05,220.62,1.35Z"/><path class="cls-1" d="M75.52,2.34A22.26,22.26,0,0,0,67.34,2C70.6,2.08,73.85,2.46,75.52,2.34Z"/><path class="cls-1" d="M2.58,170.7l-.73-1.31.31,1.23.07.31a2.42,2.42,0,0,1,.08.41l.15,1.09Z"/><path class="cls-1" d="M117.49,67.41q0,17-9.91,26.65-9.63,9.41-26.29,9.4-15.75,0-24.73-8.87t-9-24.65q0-22.15,16.9-30.67,7.69-3.87,18.93-3.87,16.07,0,25,8.43T117.49,67.41ZM103.3,69.8q0-13.35-5.36-21.2T82.21,40.74q-13.68,0-18.14,12.3a40.86,40.86,0,0,0-2.3,14.13q0,14.24,5.25,22.48,5.43,8.5,16.25,8.51,13.13,0,17.63-12.93A46.57,46.57,0,0,0,103.3,69.8Z"/><path class="cls-1" d="M192.72,40l-.46.46c-3.62,0-5.66,1-6.12,2.9a46.74,46.74,0,0,0-.55,7q-.14,4-.14,11.55V76.11q0,13.68-5.39,19.52-7.14,7.74-20.35,7.74-12.06,0-18.84-4a15.91,15.91,0,0,1-7.46-9.67q-1.09-4-1.1-20.9V56.91q0-11-.6-14.28a2,2,0,0,0-1.56-1.7,47.86,47.86,0,0,0-5.39-.46L124.3,40V36.92l.46-.46q4.41.27,14.18.28,9.94,0,14.14-.28l.45.46V40l-.45.46a47.29,47.29,0,0,0-5.39.46,2,2,0,0,0-1.57,1.7q-.6,3.32-.59,14.28v9.48q0,17.42,1.56,21.32,3.14,7.74,15.42,7.73,8.07,0,12.58-4A11.23,11.23,0,0,0,178,87.67a22.62,22.62,0,0,0,1.29-6,69.22,69.22,0,0,0,.42-7.65V64.46q0-12.07-.1-16.49a20.58,20.58,0,0,0-.54-5.38,2.71,2.71,0,0,0-1.62-1.43,25.5,25.5,0,0,0-5.66-.69l-.46-.46V36.92l.46-.46c2.67.18,5.41.28,8.24.28q3.18,0,12.2-.28l.46.46Z"/><path class="cls-1" d="M256.18,36.74a47.4,47.4,0,0,0-.6,7l-.1,7.69-.45.46h-2.91l-.5-.41a50.36,50.36,0,0,0-.51-6.91,3.15,3.15,0,0,0-3-2.16q-.91-.14-8.65-.14h-6.18q-.08,1.61-.08,12.8V81.26q0,11,.59,14.28a2,2,0,0,0,1.57,1.7,51.64,51.64,0,0,0,5.39.47l.45.45v3.09l-.45.46q-4.56-.27-14.18-.28c-6.58,0-11.3.1-14.19.28l-.41-.41V98.16l.46-.45a51.29,51.29,0,0,0,5.38-.47,2,2,0,0,0,1.57-1.7q.6-3.32.6-14.28V55.11q0-11.37-.14-12.8h-6.58q-8.25,0-9.63.51a2,2,0,0,0-1,.69,9,9,0,0,0-.69,2.94c-.21,1.63-.35,3.3-.42,5l-.46.46h-2.9l-.5-.46-.1-7.87a53.19,53.19,0,0,0-.55-6.86l.41-.46q2.72.45,19.81.46h18.64q15.75,0,19.8-.46Z"/><path class="cls-1" d="M332.11,65.24q0,15.62-10.17,25.88a34.18,34.18,0,0,1-12.07,7.78,45.8,45.8,0,0,1-17.72,2.81l-16.26-.28q-6.63-.09-11,.28l-.46-.46V100l.23-.56c2.27-1.43,3.5-2.34,3.68-2.71q.42-.82.51-6.12L269,80.25V56.91q0-11-.6-14.28a2,2,0,0,0-1.57-1.7,47,47,0,0,0-5.39-.46L261,40V36.88l.45-.42c3.26.18,6.36.28,9.31.28q10.73,0,19.34-.28,4.28-.14,8.61-.14,12,0,18.37,2.72a23.43,23.43,0,0,1,11,9.39Q332.11,55,332.11,65.24ZM318,67.45q0-12.75-6.18-19.62a17.37,17.37,0,0,0-8.05-5.06,46.79,46.79,0,0,0-12.85-1.38,54.17,54.17,0,0,0-8.2.6q-.45,5.16-.46,24.95l.09,20.13A82,82,0,0,0,282.7,96a52.7,52.7,0,0,0,8.29.64q9.17,0,14.46-2.66,5.71-2.91,9.07-9.86A38.1,38.1,0,0,0,318,67.45Z"/><path class="cls-1" d="M410.67,67.41q0,17-9.9,26.65-9.63,9.41-26.29,9.4-15.75,0-24.73-8.87t-9-24.65q0-22.15,16.9-30.67,7.68-3.87,18.92-3.87,16.08,0,25,8.43T410.67,67.41ZM396.48,69.8q0-13.35-5.36-21.2T375.4,40.74q-13.68,0-18.15,12.3A41.1,41.1,0,0,0,355,67.17q0,14.24,5.25,22.48,5.43,8.5,16.25,8.51,13.13,0,17.64-12.93A46.84,46.84,0,0,0,396.48,69.8Z"/><path class="cls-1" d="M489.23,67.41q0,17-9.91,26.65-9.61,9.41-26.29,9.4-15.75,0-24.72-8.87t-9-24.65q0-22.15,16.9-30.67,7.68-3.87,18.92-3.87,16.07,0,25,8.43T489.23,67.41ZM475,69.8q0-13.35-5.36-21.2T454,40.74q-13.67,0-18.14,12.3a40.86,40.86,0,0,0-2.3,14.13q0,14.24,5.25,22.48,5.43,8.5,16.25,8.51,13.13,0,17.64-12.93A46.84,46.84,0,0,0,475,69.8Z"/><path class="cls-1" d="M559.54,101.25l-.46.46-1.75,0q-6.32-.24-7.87-.24c-1.57,0-4.06.1-7.47.28A12.86,12.86,0,0,0,540.25,98L528.83,79l-5.11-7.78A13.18,13.18,0,0,0,521,68.37l.5-1.56c.71,0,1.23,0,1.57,0a14.78,14.78,0,0,0,7.09-1.42,12.35,12.35,0,0,0,4.33-4.52,14.38,14.38,0,0,0,2-7.69c0-5.19-1.94-8.68-5.81-10.5a19.8,19.8,0,0,0-8-1.29,26.27,26.27,0,0,0-4.42.37q-.47,4.52-.46,15.38V81.26q0,11,.6,14.28a2,2,0,0,0,1.56,1.7,52,52,0,0,0,5.39.47l.46.45v3.09l-.42.46q-4.61-.27-14.18-.28-9.9,0-14.18.28l-.46-.41V98.16l.46-.45a52,52,0,0,0,5.39-.47,2,2,0,0,0,1.56-1.7q.6-3.32.6-14.28V56.91q0-11-.6-14.28a2,2,0,0,0-1.56-1.7,47.57,47.57,0,0,0-5.39-.46L496.5,40V36.88l.46-.42q4.52.27,14.18.28,5.63,0,9.12-.14c4.63-.18,8.1-.28,10.4-.28q8,0,11.7,1.43a10.94,10.94,0,0,1,6.73,6.54,15.53,15.53,0,0,1,.82,5.34q0,12.52-14.09,17.78,2.31,3.86,4.88,7.82l7.1,10.92q6.26,9.66,8.33,11a5.39,5.39,0,0,0,3,.69l.46.46Z"/><path class="cls-1" d="M205.55,126a13.34,13.34,0,0,0-.17,2l0,2.22-.13.13h-.84l-.15-.12a15.32,15.32,0,0,0-.14-2,.93.93,0,0,0-.85-.63c-.18,0-1,0-2.5,0H199c0,.31,0,1.54,0,3.69v7.54a30.92,30.92,0,0,0,.17,4.12.57.57,0,0,0,.45.49,13.06,13.06,0,0,0,1.55.13l.14.14v.89l-.14.13c-.87-.05-2.24-.08-4.09-.08s-3.26,0-4.09.08l-.11-.12v-.9l.13-.14a12.81,12.81,0,0,0,1.55-.13A.57.57,0,0,0,195,143a30.92,30.92,0,0,0,.17-4.12v-7.54q0-3.28,0-3.69h-1.9a13.63,13.63,0,0,0-2.78.14.61.61,0,0,0-.29.2,2.6,2.6,0,0,0-.2.85,13.5,13.5,0,0,0-.12,1.45l-.14.13h-.83l-.15-.13,0-2.27a17.2,17.2,0,0,0-.16-2l.12-.13c.52.09,2.42.13,5.71.13h5.38c3,0,4.93,0,5.71-.13Z"/><path class="cls-1" d="M216.65,131.87l-.09,2.36c0,.39,0,.84-.05,1.33l-.56.17a2,2,0,0,0-1.72-.9,2,2,0,0,0-1.65.8,2.23,2.23,0,0,0-.4,1.44v3.11q0,1,.09,2.7a.74.74,0,0,0,.28.64,6.9,6.9,0,0,0,1.85.2l.13.12v.81l-.13.13c-1.3-.05-2.6-.08-3.88-.08q-2.37,0-3.63.09l-.13-.13v-.81l.13-.13a5.13,5.13,0,0,0,1.58-.2c.18-.08.28-.3.3-.64.06-1.15.09-2.38.09-3.71v-1.89a12,12,0,0,0-.2-3.06.69.69,0,0,0-.57-.33c-.11,0-.49,0-1.16-.07l-.13-.13v-.75l.13-.14a22.94,22.94,0,0,0,5-1.1l.3.17,0,2.6c.55-.63,1.21-1.38,2-2.23a2,2,0,0,1,1.48-.53A2.56,2.56,0,0,1,216.65,131.87Z"/><path class="cls-1" d="M229.66,144.62l-.15.14c-.74,0-1.59-.06-2.56-.06-.76,0-1.47,0-2.17.06l-.11-.14.11-1.78-2.57,2a1.83,1.83,0,0,1-.88.29l-.53,0a2.9,2.9,0,0,1-2.27-.89,3.59,3.59,0,0,1-.78-2.46,3.24,3.24,0,0,1,1.31-2.93,16.9,16.9,0,0,1,5.72-1.7,3.13,3.13,0,0,0-1.11-2.83,2.93,2.93,0,0,0-1.62-.44,2.75,2.75,0,0,0-1.64.43l-.5,1.23-.17.1-.68-.17-.09-.18.07-1.57a9.56,9.56,0,0,1,3.29-1.83,6.52,6.52,0,0,1,1.2-.09,4.55,4.55,0,0,1,3.74,1.37,4.77,4.77,0,0,1,.81,3c0,.34,0,.87,0,1.62,0,1.24-.07,2.07-.07,2.48,0,1.34,0,2.19.07,2.56a.88.88,0,0,0,.31.69,3,3,0,0,0,1.17.18l.14.15Zm-4.88-3.1v-3.26a8.79,8.79,0,0,0-2.95,1,1.92,1.92,0,0,0-.76,1.68c0,1.2.52,1.8,1.57,1.8A2.41,2.41,0,0,0,224.78,141.52Z"/><path class="cls-1" d="M245.13,133.11l-.13.14a3.2,3.2,0,0,0-1.07.2,1.62,1.62,0,0,0-.45.58c-.17.33-.51,1-1,2.16L240,142.07c-.09.21-.47,1.17-1.14,2.85h-2.33q-.73-2.08-1.62-4.29c-.92-2.33-1.72-4.33-2.38-6-.29-.74-.6-1.18-.94-1.3a2.61,2.61,0,0,0-.78-.12l-.15-.14v-.77l.15-.14c.82,0,2,0,3.55,0,1.36,0,2.42,0,3.2,0l.14.14v.78l-.14.14a6.21,6.21,0,0,0-1.28.12.36.36,0,0,0-.29.36,39.91,39.91,0,0,0,1.63,4.68c.58,1.53,1,2.49,1.13,2.88q.86-2,1.62-3.9a19,19,0,0,0,1.26-3.66.35.35,0,0,0-.27-.36,6.62,6.62,0,0,0-1.31-.13l-.14-.13v-.78l.14-.14c.68,0,1.49,0,2.42,0s1.86,0,2.58,0l.13.14Z"/><path class="cls-1" d="M257.57,137.25c0,.15,0,.37,0,.68l-.15.18a18.21,18.21,0,0,1-4.65.48l-1.57,0-1.57,0a5,5,0,0,0,1.2,3.22,3.87,3.87,0,0,0,3.09,1.37,7,7,0,0,0,3-.87l.32.38-.58,1.32a7.75,7.75,0,0,1-4.22,1.23,6.17,6.17,0,0,1-4.63-1.69,6.53,6.53,0,0,1-1.66-4.8q0-3.71,1.77-5.08a7.75,7.75,0,0,1,4.63-1.88,4.84,4.84,0,0,1,3.68,1.37A5.67,5.67,0,0,1,257.57,137.25Zm-3.47-.34c0-2.4-.74-3.6-2.23-3.6s-2.35,1.2-2.35,3.57v.29a20.91,20.91,0,0,0,2.74.12,12.58,12.58,0,0,0,1.83-.12C254.1,137,254.1,137,254.1,136.91Z"/><path class="cls-1" d="M266.83,144.66l-.13.13c-.84-.06-2.06-.09-3.64-.09s-2.79,0-3.63.09l-.13-.13v-.81l.13-.13a5.27,5.27,0,0,0,1.59-.2c.17-.08.27-.3.29-.64q.09-1.73.09-6v-4.45c0-1.86,0-3.37-.09-4.52a.74.74,0,0,0-.29-.64,4.59,4.59,0,0,0-1.55-.19l-.13-.15v-.73l.13-.15a25.52,25.52,0,0,0,5.14-1.1l.28.16c0,.24,0,.68,0,1.31q-.14,3.18-.13,7v3.43q0,4.32.1,6c0,.34.11.56.28.64a5.19,5.19,0,0,0,1.58.2l.15.13Z"/><path class="cls-1" d="M293.91,144.65l-.12.13-3.56-.08c-1.63,0-3.14,0-4.54.08l-.12-.13v-.84l.13-.15,1.16-.07q.72,0,.72-.51a4.87,4.87,0,0,0-.37-1.25l-1.07-2.8q-1.83,0-3.75,0l-3.08,0-.58,1.62a10.49,10.49,0,0,0-.67,2.31c0,.33.21.54.63.59a12.6,12.6,0,0,0,1.35.11l.13.14v.85l-.13.13c-1.64-.05-2.69-.08-3.16-.08s-1.26,0-2.69.08l-.14-.12v-.86l.15-.14q1.37-.07,1.68-.54c.2-.31,1-2.16,2.34-5.54l3.47-8.67c.26-.68.64-1.69,1.17-3h1.88l7,16.56c.28.63.52,1,.75,1.06a4,4,0,0,0,1.26.16l.12.15Zm-8.42-7.15-2.84-7-2.73,7c.73,0,1.67,0,2.83,0S284.79,137.53,285.49,137.5Z"/><path class="cls-1" d="M309.39,145.61a5.6,5.6,0,0,1-2.17,4.64,8.86,8.86,0,0,1-5.68,1.73,8,8,0,0,1-4.35-1,3.15,3.15,0,0,1-1.6-2.77,2.62,2.62,0,0,1,.52-1.77s.5-.34,1.41-.87c.43-.26.75-.44,1-.55-1.23-.21-1.84-.8-1.84-1.77a2.78,2.78,0,0,1,.54-1.56,5.24,5.24,0,0,1,.71-.53l1.13-.81a3.85,3.85,0,0,1-2.87-3.84,4.3,4.3,0,0,1,1.62-3.49,6.62,6.62,0,0,1,4.31-1.32,6.5,6.5,0,0,1,4.09,1.15c.55,0,.91,0,1.07,0l2-.06.15.14-.14,1.37-.15.13h-2a5.21,5.21,0,0,1,.17,1.3,4.28,4.28,0,0,1-3.07,4.32,7.58,7.58,0,0,1-2.72.52,11.54,11.54,0,0,1-1.17-.07,1.35,1.35,0,0,0-.84,1.19c0,.45.33.7,1,.77.37,0,1,0,1.86,0,.28,0,.76,0,1.44,0s1.18,0,1.51,0c2,0,3.25.44,3.73,1.33A3.76,3.76,0,0,1,309.39,145.61Zm-3,1.52c0-1-.33-1.57-1-1.82a5.54,5.54,0,0,0-1.7-.17l-2.52,0-1.17,0a3.15,3.15,0,0,0-1.82,2.59,2.44,2.44,0,0,0,1.08,2.1,5.67,5.67,0,0,0,6-.17A3.09,3.09,0,0,0,306.35,147.13Zm-2.42-10.8c0-2.23-.75-3.34-2.24-3.34s-2.21,1-2.21,2.89c0,2.29.77,3.42,2.3,3.42S303.93,138.32,303.93,136.33Z"/><path class="cls-1" d="M322.32,137.25c0,.15,0,.37,0,.68l-.15.18a18.21,18.21,0,0,1-4.65.48l-1.57,0-1.58,0a5,5,0,0,0,1.21,3.22,3.86,3.86,0,0,0,3.08,1.37,7.06,7.06,0,0,0,3-.87l.32.38-.58,1.32a7.75,7.75,0,0,1-4.22,1.23,6.16,6.16,0,0,1-4.63-1.69,6.53,6.53,0,0,1-1.66-4.8q0-3.71,1.77-5.08a7.75,7.75,0,0,1,4.63-1.88A4.84,4.84,0,0,1,321,133.2,5.67,5.67,0,0,1,322.32,137.25Zm-3.47-.34c0-2.4-.74-3.6-2.23-3.6s-2.35,1.2-2.35,3.57v.29a20.81,20.81,0,0,0,2.74.12,12.58,12.58,0,0,0,1.83-.12C318.85,137,318.85,137,318.85,136.91Z"/><path class="cls-1" d="M339.32,144.65l-.13.14c-1-.06-1.8-.09-2.47-.09s-1.53,0-2.71.09l-.14-.13c.16-2,.24-3.5.24-4.57v-2.6q0-3.24-2.34-3.24a2.33,2.33,0,0,0-1.91.83,2.23,2.23,0,0,0-.58,1.43V139a28.1,28.1,0,0,0,.17,4.22c.07.31.58.48,1.54.49l.14.14v.81l-.14.13c-.75-.05-1.88-.08-3.37-.08s-2.8,0-3.63.09l-.13-.13v-.81l.13-.13a5.13,5.13,0,0,0,1.58-.2c.18-.08.28-.3.29-.64.07-1.15.1-2.38.1-3.71v-1.89a12,12,0,0,0-.2-3.06.69.69,0,0,0-.57-.33c-.11,0-.49,0-1.16-.07l-.13-.13v-.75l.13-.14a23.15,23.15,0,0,0,5-1.1l.29.17,0,2.23,2.29-1.91a5,5,0,0,1,1.92-.36,3.85,3.85,0,0,1,3.16,1.28,4.65,4.65,0,0,1,.85,3c0,.15,0,.76-.05,1.84s-.05,1.85-.05,2.31c0,1.34,0,2.19.06,2.56s.15.6.31.69a3.7,3.7,0,0,0,1.38.18l.12.13Z"/><path class="cls-1" d="M351.32,143l-.58,1.31a7.68,7.68,0,0,1-3.56.94,5.82,5.82,0,0,1-4.53-1.7,6.59,6.59,0,0,1-1.57-4.66,6.21,6.21,0,0,1,1.21-4.15,6.86,6.86,0,0,1,1.26-1.06,18.43,18.43,0,0,1,2.56-1.62,5.61,5.61,0,0,1,2-.26,7.2,7.2,0,0,1,3,.54l.13.25q0,.16-.18,1.23l-.15.9c0,.15-.07.74-.12,1.78l-.13.13h-.8l-.13-.13a13.54,13.54,0,0,0-.19-1.65,2.35,2.35,0,0,0-2.24-1q-2.82,0-2.82,3.65a7,7,0,0,0,1.13,4.19,3.8,3.8,0,0,0,3.25,1.58,4.47,4.47,0,0,0,2.25-.55Z"/><path class="cls-1" d="M366.79,133.11l-.12.11a1.29,1.29,0,0,0-1.19.51c-.12.19-.43.85-1,2q-1.72,3.8-2.88,6.61l-2.14,5.29a9.67,9.67,0,0,1-2.13,3.5,3.81,3.81,0,0,1-2.64,1,4.12,4.12,0,0,1-1.89-.46c.15-.63.3-1.51.46-2.64l.35-.07a2.15,2.15,0,0,0,1.87,1c.93,0,1.78-.91,2.56-2.72l.55-1.27-4.31-11.19a2.89,2.89,0,0,0-.68-1.2,2.25,2.25,0,0,0-1.23-.25l-.13-.13v-.79l.15-.14c.56,0,1.65,0,3.25,0s2.7,0,3.63,0l.13.14v.79l-.13.13c-1,0-1.52.19-1.52.55a1.55,1.55,0,0,0,.14.59c.13.4.35,1,.64,1.81l1.95,5.13,1.16-2.8a24.63,24.63,0,0,0,1.72-4.8c0-.32-.52-.48-1.54-.48l-.14-.13v-.79l.15-.14c.51,0,1.38,0,2.6,0,.69,0,1.41,0,2.17,0l.14.14Z"/><path class="cls-1" d="M383.4,144.65l-.12.13c-.89-.05-2.26-.08-4.11-.08s-3.2,0-4.09.08l-.12-.13v-.89l.14-.14a12.81,12.81,0,0,0,1.55-.13.57.57,0,0,0,.45-.49,28.66,28.66,0,0,0,.18-4.12v-7a28.66,28.66,0,0,0-.18-4.12.56.56,0,0,0-.45-.49,12.81,12.81,0,0,0-1.55-.13L375,127v-.9l.14-.12c.85.05,2.21.08,4.09.08s3.23,0,4.08-.08l.13.12v.9l-.13.14a12.85,12.85,0,0,0-1.56.13.59.59,0,0,0-.45.49,29.21,29.21,0,0,0-.17,4.12v7a29.21,29.21,0,0,0,.17,4.12.6.6,0,0,0,.45.49,12.85,12.85,0,0,0,1.56.13l.13.14Z"/><path class="cls-1" d="M400.52,144.65l-.13.14c-1-.06-1.8-.09-2.47-.09s-1.53,0-2.72.09l-.13-.13c.16-2,.24-3.5.24-4.57v-2.6q0-3.24-2.34-3.24a2.33,2.33,0,0,0-1.91.83,2.23,2.23,0,0,0-.58,1.43V139a28.1,28.1,0,0,0,.17,4.22c.07.31.58.48,1.54.49l.14.14v.81l-.14.13c-.75-.05-1.88-.08-3.37-.08s-2.8,0-3.63.09l-.13-.13v-.81l.13-.13a5.13,5.13,0,0,0,1.58-.2c.18-.08.28-.3.29-.64.07-1.15.1-2.38.1-3.71v-1.89a12,12,0,0,0-.2-3.06.69.69,0,0,0-.57-.33c-.11,0-.49,0-1.16-.07l-.13-.13v-.75l.13-.14a23.15,23.15,0,0,0,5-1.1l.29.17,0,2.23,2.29-1.91a5,5,0,0,1,1.92-.36,3.85,3.85,0,0,1,3.16,1.28,4.65,4.65,0,0,1,.85,3c0,.15,0,.76-.05,1.84s-.06,1.85-.06,2.31c0,1.34,0,2.19.07,2.56a.88.88,0,0,0,.31.69,3.7,3.7,0,0,0,1.38.18l.12.13Z"/><path class="cls-1" d="M412.52,143l-.58,1.31a7.68,7.68,0,0,1-3.56.94,5.82,5.82,0,0,1-4.53-1.7,6.59,6.59,0,0,1-1.57-4.66,6.21,6.21,0,0,1,1.21-4.15,6.86,6.86,0,0,1,1.26-1.06,18.43,18.43,0,0,1,2.56-1.62,5.61,5.61,0,0,1,2-.26,7.2,7.2,0,0,1,3,.54l.13.25c0,.11-.07.52-.19,1.23l-.14.9c0,.15-.07.74-.12,1.78l-.13.13H411l-.14-.13a12.19,12.19,0,0,0-.18-1.65,2.35,2.35,0,0,0-2.24-1q-2.82,0-2.82,3.65a7,7,0,0,0,1.13,4.19,3.8,3.8,0,0,0,3.25,1.58,4.47,4.47,0,0,0,2.25-.55Z"/><path class="cls-1" d="M416.56,140.9a2,2,0,0,1,1.46.61,2,2,0,0,1,.61,1.5,2.07,2.07,0,0,1-.61,1.49,2,2,0,0,1-1.46.61,2,2,0,0,1-1.47-.62,2,2,0,0,1-.62-1.48,2.07,2.07,0,0,1,.61-1.49A2,2,0,0,1,416.56,140.9Z"/></g></g></svg>