<svg id="Layer_1" xmlns="http://www.w3.org/2000/svg" viewBox="0 0 636 318.1"><style>.st0{fill:#fff}</style><g id="TAMKKC.tif"><path class="st0" d="M377.3 43.4c-2.5-.6-4.3-1-6.2-1.5-31.2-8.3-62.3-8-92.9 2.3-28.9 9.7-52.5 27.1-69.3 52.9-10.1 15.6-15.6 32.6-14.9 51.4.1 1.5.1 3-.1 4.5-.3 2.3-.7 4.6-2.9 6-2.6-1.2-3-3.7-3.7-5.8-7.2-21.9-5.8-43.6 4.6-64 19.3-37.8 50.4-60.7 92-69 26-5.2 51.7-2.9 76.5 6.9 3.2 1.3 6.4 2.7 9.5 4.4 4.2 2.2 6.8 6.2 7.4 11.9z"/><path class="st0" d="M435.2 160.4c-.5-1.7-1-2.7-1.1-3.8-5.3-39.1-31.8-78.3-81.8-91.4-32.8-8.6-65-6-96.6 6-4.3 1.6-8.4 4-12.6 6-2.8 1.3-5.7 2.7-9.1.8.3-2.9 2.3-4.4 4.2-5.9 9.8-8.1 20.6-14.9 32.5-19.4C304.3 40 338.5 37.6 373 48.4c24.6 7.7 44.1 22.3 57.3 44.7 6.8 11.5 10.7 23.9 12.8 37.1 1.1 6.6 1.7 13.2.3 19.8-1 4.4-3.6 7.5-8.2 10.4zm-174.9 43V236c-5.3.3-10.3.1-15.6.2v-60.1c4.2 0 8.4.1 12.5 0 2.1-.1 2.9 1.4 3.8 2.7 6.2 9.1 12.4 18.1 18.7 27.2.5.8 1.1 1.6 2.5 2.2v-31.8h15.6v59.8c-4 0-7.8-.1-11.6 0-1.9 0-2.5-1.3-3.4-2.5-6.2-8.9-12.4-17.7-18.6-26.6-.9-1.3-1.9-2.6-2.9-3.9-.3 0-.6.1-1 .2zM65.7 235.9H21.1v-59.6h42.8v13.3H37.3v9.4h21.8v12.9H37.3v10.4h28.4v13.6zm441.7-13.6h30.2v13.5h-50.1c-.9-3.7-.5-7.5-.3-11.3.1-1.1 1.2-2.3 2.1-3.3 8.3-9.3 16.7-18.6 25-27.9.8-.8 1.5-1.7 2.7-3.3h-28.3c-.7-4.8-.4-9.2-.1-13.9h48.5c0 3.6.2 7.1-.1 10.5-.1 1.5-1.3 3-2.3 4.2l-23.7 27c-.9 1.2-1.8 2.4-3.6 4.5zm60.3-46.1h18.5c7 19.8 14 39.5 21.1 59.6h-17.1c-1.2-3.8-2.5-7.5-3.9-11.9-6.5-.1-13.1-.1-20.1 0-1.4 3.9-2.7 7.8-4.1 11.9h-16.3c7.4-20.1 14.6-39.9 21.9-59.6zm9.2 15.4c-.3-.1-.7-.1-1-.2-2.1 6.7-4.2 13.4-6.4 20.4H583c-2.1-7-4.1-13.6-6.1-20.2zm-401.8 44.2c7.4-20 14.6-39.6 21.9-59.5h18.5c6.9 19.5 13.9 39.3 21.1 59.5h-17.1c-1.2-3.8-2.4-7.6-3.8-11.6h-20.3c-1.2 3.6-2.6 7.4-4 11.6h-16.3zm31-44.3c-.3 0-.6 0-1 .1-2.1 6.6-4.2 13.3-6.4 20.3h13.5c-2-7.1-4-13.8-6.1-20.4zm272.8 44.4h-17.1c-1.3-3.9-2.6-7.7-4-11.9h-20.1c-1.3 3.9-2.7 7.7-4.1 11.8h-16.3c7.3-20 14.6-39.6 21.9-59.6h18.6c6.9 19.6 13.9 39.4 21.1 59.7zm-30.5-44.5c-.3 0-.7.1-1 .1-2.1 6.7-4.2 13.4-6.4 20.4h13.5c-2.1-7.1-4.1-13.8-6.1-20.5zm-326.3-9c-2.7 3.4-5.2 6.5-7.8 9.8-1.7-.9-3.2-1.9-4.8-2.7-3.3-1.7-6.8-2.9-10.5-2.3-2.2.3-4.3 1.1-4.9 3.6-.6 2.2.4 4 3.3 5.4 2.4 1.1 5 1.9 7.4 2.8 2.8 1 5.7 1.9 8.4 3.1 12.5 5.7 13.8 23.4 1.9 31-3.9 2.5-8.1 3.9-12.6 4.3-9.7.8-18.9-.7-26.9-6.8-.4-.3-.8-.6-1.1-1-.2-.2-.3-.6-.6-1.3 2.9-3.5 5.9-7.2 8.6-10.4 4.6 2 8.5 4.2 12.7 5.5 2.2.7 5 .4 7.3-.3 3.9-1.2 4.4-5.3 1.1-7.7-2.1-1.5-4.7-2.3-7.2-3.4-3.4-1.4-6.9-2.4-10.1-4.1-14.4-7.7-9.6-24.3-.6-29.9 10-6.1 27.5-4.3 36.4 4.4zm205 53.4h-14.6c-1-3.8-1.2-53.6-.3-59.4.4-.1.9-.4 1.3-.4 8.7 0 17.3-.2 26 .1 8.6.3 15.4 5.8 17.3 13.4 2.4 9.3-.6 18.3-7.7 23.1-3.4 2.3-7.2 3.4-11.3 3.4h-10.6c-.1 3.5-.2 6.8-.2 10 .1 3.2.1 6.3.1 9.8zm.4-47.1v14.7c3.1 0 6 .3 8.7-.1 3.6-.5 5.7-3.3 5.8-7 .1-3.9-2-7.1-5.6-7.6-2.9-.3-5.9 0-8.9 0zm-200.6-12.5h52.4v13.7h-18.1v45.9h-16.1v-45.6h-18.3c.1-5 .1-9.4.1-14zm240.7 0h15.6V222h27.6v13.8H368c-1-3.5-1.3-50.1-.4-59.6zm-95.5 119.1c.1-6.9 5.2-12.2 11.9-12.2 6.9 0 12.2 5.5 12.1 12.5-.1 6.8-5.4 12.3-11.9 12.3-6.9.1-12.2-5.5-12.1-12.6zm20.4.3c.1-5.4-3.3-9.3-8.1-9.5-4.9-.2-9 4.1-9 9.3 0 4.9 4 9.4 8.5 9.4 4.7-.1 8.5-4.1 8.6-9.2zm-29.1 1h-12.8c-.1 2.8-.2 5.4-.3 8 0 1.8-.4 3-3.2 2.2v-6.6c0-4.8 0-9.7.1-14.5 0-.6.8-1.2 1.3-1.7.6.6 1.7 1.1 1.7 1.8.2 2.4.1 4.9.1 7.6h13c0-2.4-.1-4.9.1-7.3.1-.7.9-1.8 1.6-2 1.5-.4 2 .8 2 2.1v19c0 2.3-1.5 2.2-3.5 1.7-.1-3.4-.1-6.6-.1-10.3zm100.6 7.2c1-1.7 1.8-2.1 3.3-1 1.3.9 2.9 1.6 4.5 1.9 2.3.4 4.7-1 5.2-2.9.6-2.1-.4-3.7-3.1-4.8-1.5-.6-3.2-.9-4.7-1.5-3.2-1.3-4.7-3.9-4.2-7.1.4-2.8 2.5-4.9 5.8-5.3 3.4-.4 6.6-.1 8.9 3-.7 1.7-1.5 2-3.1 1.2-1.4-.7-3.2-1.5-4.6-1.2-1.3.3-2.9 1.7-3.4 2.9-.3.7 1.2 2.5 2.3 3.3 1.2.8 2.8 1 4.2 1.5 4.6 1.6 6.5 4.3 5.7 8-.7 3.6-4.4 6.2-8.6 6-3.1-.1-5.2-1.2-8.2-4zm-39.7 3v-22.4c5.6-1.2 11.1-1 14.7.4-1 2.6-3.3 1.6-5 1.8-2 .2-4 0-6.3 0v6.8c2.2 0 4.4-.1 6.7.1.6 0 1.1.9 1.7 1.4-.5.5-1.1 1.3-1.7 1.4-2.1.2-4.3.1-6.7.1v7.9h9.9c1.5 0 2.7.3 2.2 2.6-5.1-.1-10.2-.1-15.5-.1zm-24.7-22.6c1.2-.2 2.5-.4 3.7-.5 4.3-.1 8.6-.1 12.9 0 1.3 0 3.5-.7 3.4 1.5s-2.3 1.1-3.6 1.4c-1.4.3-2.9.2-4.8.3V302c0 1.3 0 2.7-.2 4-.1.4-.9 1-1.4 1s-1.3-.6-1.4-1c-.2-1.3-.2-2.6-.2-4v-14.4c-3-2-6.2.5-8.4-2-.1-.2 0-.7 0-1.4zm48.5 19.5c4.5.4 8.2.8 11.9 1.3.1 0 .1.9.2 2-5 .2-9.8.2-15.3-.1v-7c0-4-.1-8 .1-11.9.1-1.4-1-3.9 1.5-4 2.7-.1 1.6 2.4 1.7 3.8.1 4 .1 8 .1 11.9-.2 1.3-.2 2.6-.2 4zm258-129.5c3.9-.2 7.2 3.1 7.3 7.2.1 3.8-2.9 7.1-6.6 7.4-3.8.3-7.5-3.1-7.6-6.9-.2-3.9 3.1-7.5 6.9-7.7zm.5 13c3-.1 5.5-2.9 5.4-5.9-.2-3.2-2.6-5.5-5.8-5.4-3.3.1-5.4 2.4-5.3 5.8.1 3.4 2.4 5.6 5.7 5.5z"/><path class="st0" d="M608.2 181c.2 1.3.3 2.5.5 3.8-.2.2-.5.4-.7.5-.5-1-1-2-1.7-3.5-.9 1.4-1.3 2-2 3.2v-6.8c1.4.1 2.8-.1 3.9.4 1.1.6 1.5 1.8-.1 2.6-.5-.9-.5-2.5-2.3-1.9-.2.1-.3.5-.4.8.9.3 1.9.6 2.8.9z"/></g></svg>